<svg width="440" height="115" viewBox="0 0 440 115" fill="none" xmlns="http://www.w3.org/2000/svg">
<path d="M108.5 100H112.145V85.915H125.51V82.63H112.145V71.83H126.455V68.5H108.5V100ZM129.372 100H132.927V87.49C132.927 83.035 134.682 79.57 138.957 79.57H141.072V76.015H139.542C136.122 76.015 133.827 78.535 133.152 80.515H132.882V76.6H129.372V100ZM153.048 100.585C160.068 100.585 165.288 95.32 165.288 88.3C165.288 81.28 160.158 76.015 153.093 76.015C146.118 76.015 140.853 81.235 140.853 88.3C140.853 95.41 146.028 100.585 153.048 100.585ZM153.048 97.345C148.053 97.345 144.498 93.565 144.498 88.3C144.498 83.17 148.008 79.255 153.048 79.255C158.088 79.255 161.643 83.125 161.643 88.3C161.643 93.52 158.088 97.345 153.048 97.345ZM168.194 100H171.749V86.05C171.749 82.18 174.629 79.345 178.319 79.345C181.604 79.345 184.349 81.775 184.349 85.51V100H187.904V85.285C187.904 80.11 184.619 76.015 179.174 76.015C175.529 76.015 173.009 77.905 172.019 80.02H171.749V76.6H168.194V100ZM201.466 100H204.796V96.895H201.421C198.946 96.895 197.911 95.815 197.911 93.295V79.615H205.111V76.6H197.911V69.805H194.581V76.6H189.946V79.615H194.356V93.34C194.356 98.065 197.191 100 201.466 100ZM207.795 100H219.225C229.215 100 235.02 94.015 235.02 84.25C235.02 75.07 229.215 68.5 219.225 68.5H207.795V71.605H210.765V96.895H207.795V100ZM214.41 96.76V71.785H219.225C226.785 71.785 231.285 76.645 231.285 84.25C231.285 92.17 226.695 96.76 219.225 96.76H214.41ZM247.726 100.585C253.126 100.585 256.996 97.48 258.301 93.115L254.836 92.305C254.071 95.545 251.056 97.435 247.771 97.435C242.911 97.435 239.851 94.51 239.806 89.29H258.616V87.985C258.616 80.965 254.566 76.015 247.501 76.015C241.291 76.015 236.161 80.92 236.161 88.39C236.161 95.59 240.616 100.585 247.726 100.585ZM239.896 86.41C240.166 82 243.676 79.21 247.501 79.21C251.371 79.21 254.746 81.55 254.971 86.41H239.896ZM269.265 100.585C274.71 100.585 278.355 97.615 278.355 93.205C278.355 83.53 264.315 88.48 264.315 82.54C264.315 80.515 266.205 79.075 269.13 79.075C272.19 79.075 274.44 80.74 274.755 83.485L277.86 82.585C277.32 78.355 273.405 76.015 269.355 76.015C264.45 76.015 260.895 78.58 260.895 82.54C260.895 91.81 274.89 86.815 274.89 93.385C274.89 95.77 272.955 97.48 269.445 97.48C265.89 97.48 263.685 95.86 263.415 92.71L260.175 93.52C260.715 97.705 264 100.585 269.265 100.585ZM281.968 100H285.523V88.885H289.753L296.683 100H300.913L292.633 87.22V86.95L300.328 76.6H296.233L289.618 85.645H285.523V66.25H281.968V100Z" fill="#364E62"/>
<path d="M108.131 53V10.9883H134.732V19.1035H117.623V28.7715H133.033V36.8574H117.623V53H108.131ZM137.05 53V21.3301H145.81V26.1055H146.308C146.933 24.7578 147.959 23.5859 149.384 22.5898C150.81 21.5742 152.5 21.0664 154.453 21.0664H157.529V29.8262H153.867C151.562 29.8262 149.736 30.6074 148.388 32.1699C147.041 33.7324 146.367 35.8711 146.367 38.5859V53H137.05ZM157.21 37.1504C157.21 34.8262 157.62 32.6484 158.441 30.6172C159.28 28.5859 160.433 26.8281 161.898 25.3438C163.362 23.8594 165.159 22.6875 167.288 21.8281C169.437 20.9688 171.771 20.5391 174.29 20.5391C179.29 20.5391 183.382 22.1309 186.566 25.3145C189.749 28.4785 191.341 32.4238 191.341 37.1504C191.341 39.4746 190.921 41.6621 190.081 43.7129C189.261 45.7441 188.109 47.502 186.624 48.9863C185.14 50.4707 183.323 51.6426 181.175 52.502C179.046 53.3613 176.732 53.791 174.232 53.791C170.931 53.791 167.972 53.0586 165.355 51.5938C162.757 50.1094 160.745 48.1074 159.32 45.5879C157.913 43.0684 157.21 40.2559 157.21 37.1504ZM166.614 37.1504C166.614 39.5723 167.327 41.5547 168.753 43.0977C170.198 44.6211 172.025 45.3828 174.232 45.3828C176.458 45.3828 178.294 44.6113 179.739 43.0684C181.204 41.5254 181.937 39.5527 181.937 37.1504C181.937 34.748 181.204 32.7852 179.739 31.2617C178.294 29.7188 176.458 28.9473 174.232 28.9473C172.025 28.9473 170.198 29.7188 168.753 31.2617C167.327 32.7852 166.614 34.748 166.614 37.1504ZM193.835 53V21.3301H202.595V24.7871H203.093C203.776 23.5957 204.86 22.5898 206.345 21.7695C207.848 20.9492 209.596 20.5391 211.589 20.5391C215.046 20.5391 217.8 21.5938 219.85 23.7031C221.901 25.8125 222.927 28.5371 222.927 31.877V53H213.639V34.748C213.639 33.0879 213.18 31.75 212.262 30.7344C211.345 29.6992 210.104 29.1816 208.542 29.1816C206.94 29.1816 205.641 29.7676 204.645 30.9395C203.649 32.0918 203.151 33.5273 203.151 35.2461V53H193.835ZM224.483 28.5664V21.3887H227.471C228.291 21.3887 228.926 21.1348 229.375 20.627C229.825 20.0996 230.049 19.4062 230.049 18.5469V12.7461H238.868V21.3301H247.159V28.5664H238.868V41.5449C238.868 42.7363 239.209 43.6641 239.893 44.3281C240.596 44.9922 241.621 45.3242 242.969 45.3242H247.041V53H240.625C237.149 53 234.434 52.043 232.481 50.1289C230.547 48.1953 229.58 45.4902 229.58 42.0137V28.5664H224.483ZM247.484 37.3262C247.484 32.3457 248.812 28.3027 251.469 25.1973C254.145 22.0918 257.611 20.5391 261.869 20.5391C264.076 20.5391 265.932 20.998 267.436 21.916C268.959 22.8145 270.082 23.8203 270.805 24.9336H271.303V21.3301H280.59V53H271.361V49.3965H270.863C270.59 49.8457 270.238 50.2852 269.809 50.7148C269.379 51.1445 268.812 51.6133 268.109 52.1211C267.426 52.6094 266.557 53.0098 265.502 53.3223C264.467 53.6348 263.334 53.791 262.104 53.791C257.729 53.791 254.193 52.2871 251.498 49.2793C248.822 46.2715 247.484 42.2871 247.484 37.3262ZM256.889 37.1504C256.889 39.6113 257.562 41.6035 258.91 43.127C260.258 44.6309 262.025 45.3828 264.213 45.3828C266.4 45.3828 268.158 44.6113 269.486 43.0684C270.814 41.5059 271.479 39.5332 271.479 37.1504C271.479 34.6699 270.795 32.6875 269.428 31.2031C268.061 29.6992 266.303 28.9473 264.154 28.9473C262.006 28.9473 260.258 29.709 258.91 31.2324C257.562 32.7559 256.889 34.7285 256.889 37.1504ZM283.816 43.0391V8H293.132V41.9551C293.132 43.8691 294.011 44.8262 295.769 44.8262H296.912V53H293.718C290.574 53 288.132 52.1211 286.394 50.3633C284.675 48.6055 283.816 46.1641 283.816 43.0391ZM298.761 48.8105C298.761 47.4043 299.259 46.2227 300.255 45.2656C301.271 44.3086 302.482 43.8301 303.888 43.8301C305.392 43.8301 306.613 44.3086 307.55 45.2656C308.507 46.2031 308.986 47.3848 308.986 48.8105C308.986 50.2754 308.517 51.4766 307.579 52.4141C306.642 53.332 305.411 53.791 303.888 53.791C302.462 53.791 301.251 53.3223 300.255 52.3848C299.259 51.4473 298.761 50.2559 298.761 48.8105ZM309.311 53L323.579 10.9883H335.708L350.151 53H340.073L337.554 45.5586H321.47L319.009 53H309.311ZM324.048 37.0918H334.975L329.819 21.4473H329.292L324.048 37.0918ZM351.473 53V10.9883H360.965V53H351.473Z" fill="#133569"/>
<path d="M67.1994 93.5975C72.8869 88.1978 75.7306 80.8924 75.7306 71.9989C75.7306 63.4229 72.8869 56.1175 67.1994 50.0826C61.1959 44.3654 53.9285 41.5067 45.3973 41.5067C36.5501 41.5067 29.2827 44.3654 23.5952 50.0826C17.9077 56.1175 15.064 63.4229 15.064 71.9989C15.064 80.8924 17.9077 88.1978 23.5952 93.5975C29.2827 99.3147 36.5501 102.173 45.3973 102.173C54.2445 102.173 61.5119 99.3147 67.1994 93.5975Z" fill="url(#paint0_linear)"/>
<path d="M67.1994 12.5759C72.8869 17.9755 75.7306 25.2809 75.7306 34.1745C75.7306 42.7504 72.8869 50.0558 67.1994 56.0907C61.1959 61.808 53.9285 64.6666 45.3973 64.6666C36.5501 64.6666 29.2827 61.808 23.5952 56.0907C17.9077 50.0558 15.064 42.7504 15.064 34.1745C15.064 25.2809 17.9077 17.9755 23.5952 12.5759C29.2827 6.85859 36.5501 3.99996 45.3973 3.99996C54.2445 3.99996 61.5119 6.85859 67.1994 12.5759Z" fill="url(#paint1_linear)"/>
<path d="M8.57575 33.4503C13.9754 27.7628 21.2808 24.919 30.1744 24.919C38.7503 24.919 46.0557 27.7628 52.0906 33.4503C57.8079 39.4537 60.6665 46.7211 60.6665 55.2524C60.6665 64.0996 57.8079 71.3669 52.0906 77.0544C46.0557 82.7419 38.7503 85.5857 30.1744 85.5857C21.2808 85.5857 13.9754 82.7419 8.57575 77.0544C2.85847 71.3669 -0.0001643 64.0996 -0.0001643 55.2524C-0.0001643 46.4051 2.85847 39.1378 8.57575 33.4503Z" fill="url(#paint2_linear)" fill-opacity="0.6"/>
<path d="M82.4243 33.4503C77.0246 27.7628 69.7192 24.919 60.8256 24.919C52.2497 24.919 44.9443 27.7628 38.9094 33.4503C33.1921 39.4537 30.3335 46.7211 30.3335 55.2524C30.3335 64.0996 33.1921 71.3669 38.9094 77.0544C44.9443 82.7419 52.2497 85.5857 60.8256 85.5857C69.7192 85.5857 77.0246 82.7419 82.4243 77.0544C88.1415 71.3669 91.0002 64.0996 91.0002 55.2524C91.0002 46.4051 88.1415 39.1378 82.4243 33.4503Z" fill="url(#paint3_linear)" fill-opacity="0.6"/>
<defs>
<linearGradient id="paint0_linear" x1="45.3973" y1="41.5067" x2="45.3973" y2="102.173" gradientUnits="userSpaceOnUse">
<stop stop-color="#133569"/>
<stop offset="1" stop-color="#9DD9E6"/>
</linearGradient>
<linearGradient id="paint1_linear" x1="45.3973" y1="64.6666" x2="45.3973" y2="3.99996" gradientUnits="userSpaceOnUse">
<stop stop-color="#133569"/>
<stop offset="1" stop-color="#9DD9E6"/>
</linearGradient>
<linearGradient id="paint2_linear" x1="60.6665" y1="55.2524" x2="-0.000164032" y2="55.2524" gradientUnits="userSpaceOnUse">
<stop stop-color="#2C3BBE"/>
<stop offset="1" stop-color="#0041C0" stop-opacity="0.63"/>
</linearGradient>
<linearGradient id="paint3_linear" x1="30.3335" y1="55.2524" x2="91.0002" y2="55.2524" gradientUnits="userSpaceOnUse">
<stop stop-color="#2C3BBE"/>
<stop offset="1" stop-color="#0041C0" stop-opacity="0.63"/>
</linearGradient>
</defs>
</svg>
