<svg width="471" height="337" viewBox="0 0 471 337" fill="none" xmlns="http://www.w3.org/2000/svg">
<path d="M131.165 172.583V127.07H148.97C153.646 127.07 157.497 128.467 160.523 131.26C163.57 134.053 165.093 137.66 165.093 142.083C165.093 145.045 164.342 147.69 162.84 150.017C161.359 152.345 159.422 154.122 157.032 155.349L166.743 172.583H155.286L147.542 157.38H141.448V172.583H131.165ZM141.448 148.589H148.081C150.007 148.589 151.573 148.018 152.779 146.875C153.985 145.732 154.588 144.135 154.588 142.083C154.588 140.199 153.985 138.697 152.779 137.576C151.573 136.433 149.964 135.862 147.954 135.862H141.448V148.589ZM166.271 155.603C166.271 150.229 167.9 145.859 171.159 142.495C174.417 139.11 178.66 137.417 183.886 137.417C186.637 137.417 189.112 137.904 191.313 138.877C193.534 139.829 195.343 141.13 196.74 142.781C198.136 144.431 199.205 146.325 199.945 148.462C200.707 150.599 201.088 152.874 201.088 155.286V158.206H175.824C175.994 160.406 176.819 162.205 178.3 163.601C179.802 164.998 181.728 165.696 184.076 165.696C185.959 165.696 187.557 165.304 188.869 164.521C190.202 163.739 191.133 162.765 191.662 161.602H200.771C199.988 165.241 198.094 168.129 195.09 170.266C192.085 172.382 188.287 173.44 183.695 173.44C180.416 173.44 177.443 172.678 174.777 171.155C172.132 169.631 170.048 167.505 168.525 164.775C167.022 162.046 166.271 158.988 166.271 155.603ZM176.015 151.509H191.757C191.567 149.647 190.752 148.113 189.313 146.907C187.896 145.701 186.086 145.098 183.886 145.098C181.812 145.098 180.035 145.732 178.554 147.002C177.094 148.25 176.248 149.753 176.015 151.509ZM201.917 155.603C201.917 150.208 203.356 145.828 206.233 142.463C209.132 139.099 212.888 137.417 217.501 137.417C219.892 137.417 221.902 137.914 223.531 138.909C225.181 139.882 226.398 140.972 227.181 142.178H227.72V123.833H237.781V172.583H227.784V168.679H227.244C226.948 169.166 226.567 169.642 226.102 170.107C225.636 170.573 225.023 171.081 224.261 171.631C223.52 172.16 222.579 172.594 221.436 172.932C220.315 173.271 219.087 173.44 217.754 173.44C213.015 173.44 209.185 171.811 206.265 168.552C203.366 165.294 201.917 160.977 201.917 155.603ZM212.105 155.413C212.105 158.079 212.835 160.237 214.295 161.887C215.755 163.516 217.67 164.331 220.04 164.331C222.409 164.331 224.314 163.495 225.753 161.824C227.191 160.131 227.911 157.994 227.911 155.413C227.911 152.725 227.17 150.578 225.689 148.97C224.208 147.34 222.304 146.526 219.976 146.526C217.649 146.526 215.755 147.351 214.295 149.001C212.835 150.652 212.105 152.789 212.105 155.413ZM241.086 161.157V138.274H251.147V158.015C251.147 159.835 251.644 161.305 252.639 162.427C253.633 163.527 254.987 164.077 256.701 164.077C258.436 164.077 259.843 163.453 260.922 162.205C262.001 160.935 262.541 159.369 262.541 157.507V138.274H272.602V172.583H263.049V168.806H262.541C261.822 170.076 260.647 171.165 259.018 172.075C257.41 172.985 255.527 173.44 253.369 173.44C249.624 173.44 246.64 172.297 244.418 170.012C242.197 167.727 241.086 164.775 241.086 161.157ZM274.669 155.413C274.669 152.048 275.399 149.012 276.859 146.304C278.34 143.574 280.466 141.416 283.238 139.829C286.01 138.221 289.194 137.417 292.791 137.417C297.531 137.417 301.488 138.729 304.661 141.353C307.835 143.955 309.666 147.362 310.152 151.572H299.932C299.467 150.07 298.599 148.853 297.33 147.922C296.082 146.991 294.59 146.526 292.855 146.526C290.443 146.526 288.507 147.372 287.047 149.065C285.587 150.758 284.857 152.874 284.857 155.413C284.857 157.973 285.597 160.099 287.078 161.792C288.56 163.485 290.506 164.331 292.918 164.331C294.569 164.331 296.018 163.897 297.266 163.03C298.515 162.162 299.361 161.03 299.806 159.634H310.089C309.517 163.739 307.666 167.071 304.535 169.631C301.424 172.17 297.531 173.44 292.855 173.44C289.258 173.44 286.063 172.636 283.27 171.028C280.477 169.42 278.34 167.251 276.859 164.521C275.399 161.792 274.669 158.756 274.669 155.413ZM311.013 155.603C311.013 150.229 312.642 145.859 315.901 142.495C319.159 139.11 323.402 137.417 328.628 137.417C331.378 137.417 333.854 137.904 336.055 138.877C338.276 139.829 340.085 141.13 341.482 142.781C342.878 144.431 343.947 146.325 344.687 148.462C345.449 150.599 345.83 152.874 345.83 155.286V158.206H320.566C320.735 160.406 321.561 162.205 323.042 163.601C324.544 164.998 326.47 165.696 328.818 165.696C330.701 165.696 332.299 165.304 333.611 164.521C334.944 163.739 335.875 162.765 336.404 161.602H345.513C344.73 165.241 342.836 168.129 339.831 170.266C336.827 172.382 333.029 173.44 328.437 173.44C325.158 173.44 322.185 172.678 319.519 171.155C316.874 169.631 314.79 167.505 313.266 164.775C311.764 162.046 311.013 158.988 311.013 155.603ZM320.757 151.509H336.499C336.308 149.647 335.494 148.113 334.055 146.907C332.637 145.701 330.828 145.098 328.628 145.098C326.554 145.098 324.777 145.732 323.296 147.002C321.836 148.25 320.989 149.753 320.757 151.509ZM65.0464 228.827C65.0464 225.526 65.66 222.426 66.8872 219.527C68.1144 216.607 69.786 214.1 71.9019 212.005C74.0389 209.911 76.5991 208.26 79.5825 207.054C82.5871 205.848 85.8032 205.245 89.231 205.245C92.6375 205.245 95.8431 205.859 98.8477 207.086C101.852 208.292 104.412 209.942 106.528 212.037C108.665 214.132 110.347 216.639 111.575 219.559C112.802 222.458 113.416 225.547 113.416 228.827C113.416 233.207 112.368 237.206 110.273 240.824C108.179 244.421 105.28 247.256 101.577 249.33C97.8955 251.403 93.7801 252.44 89.231 252.44C85.8032 252.44 82.5871 251.837 79.5825 250.631C76.578 249.425 74.0072 247.785 71.8701 245.711C69.7542 243.617 68.0827 241.109 66.8555 238.189C65.6494 235.27 65.0464 232.149 65.0464 228.827ZM75.7104 228.827C75.7104 232.783 76.9694 236.063 79.4873 238.666C82.0264 241.247 85.2743 242.538 89.231 242.538C93.1453 242.538 96.3615 241.247 98.8794 238.666C101.418 236.063 102.688 232.783 102.688 228.827C102.688 224.912 101.418 221.654 98.8794 219.051C96.3615 216.428 93.1453 215.116 89.231 215.116C85.2954 215.116 82.0581 216.428 79.519 219.051C76.98 221.654 75.7104 224.912 75.7104 228.827ZM116.339 251.583V217.274H125.829V221.019H126.369C127.109 219.728 128.283 218.639 129.892 217.75C131.521 216.861 133.414 216.417 135.573 216.417C139.318 216.417 142.301 217.56 144.523 219.845C146.745 222.13 147.855 225.082 147.855 228.7V251.583H137.794V231.81C137.794 230.012 137.297 228.562 136.303 227.462C135.308 226.34 133.965 225.78 132.272 225.78C130.537 225.78 129.13 226.415 128.051 227.684C126.972 228.932 126.432 230.488 126.432 232.35V251.583H116.339ZM151.414 251.583V202.833H161.507V221.178H162.014C162.797 219.972 163.993 218.882 165.601 217.909C167.23 216.914 169.261 216.417 171.695 216.417C176.307 216.417 180.052 218.099 182.93 221.463C185.808 224.828 187.246 229.208 187.246 234.603C187.246 239.977 185.786 244.294 182.867 247.552C179.947 250.811 176.138 252.44 171.441 252.44C170.108 252.44 168.859 252.271 167.696 251.932C166.553 251.594 165.601 251.16 164.839 250.631C164.099 250.081 163.496 249.573 163.03 249.107C162.565 248.642 162.184 248.166 161.887 247.679H161.38V251.583H151.414ZM161.284 234.413C161.284 236.994 162.004 239.131 163.443 240.824C164.881 242.495 166.786 243.331 169.156 243.331C171.483 243.331 173.377 242.516 174.837 240.887C176.297 239.237 177.027 237.079 177.027 234.413C177.027 231.789 176.297 229.652 174.837 228.001C173.377 226.351 171.483 225.526 169.156 225.526C166.828 225.526 164.934 226.33 163.474 227.938C162.014 229.546 161.284 231.704 161.284 234.413ZM188.044 234.413C188.044 231.895 188.488 229.535 189.377 227.335C190.286 225.134 191.535 223.23 193.122 221.622C194.709 220.014 196.655 218.744 198.962 217.813C201.289 216.882 203.818 216.417 206.547 216.417C211.964 216.417 216.397 218.141 219.845 221.59C223.294 225.018 225.019 229.292 225.019 234.413C225.019 236.931 224.564 239.3 223.654 241.522C222.765 243.722 221.517 245.627 219.909 247.235C218.301 248.843 216.333 250.112 214.006 251.043C211.699 251.974 209.192 252.44 206.484 252.44C202.908 252.44 199.702 251.646 196.867 250.06C194.053 248.451 191.873 246.283 190.329 243.553C188.805 240.824 188.044 237.777 188.044 234.413ZM198.232 234.413C198.232 237.036 199.004 239.184 200.549 240.855C202.114 242.506 204.093 243.331 206.484 243.331C208.896 243.331 210.885 242.495 212.45 240.824C214.037 239.152 214.831 237.015 214.831 234.413C214.831 231.81 214.037 229.684 212.45 228.033C210.885 226.362 208.896 225.526 206.484 225.526C204.093 225.526 202.114 226.362 200.549 228.033C199.004 229.684 198.232 231.81 198.232 234.413ZM225.784 234.603C225.784 229.208 227.223 224.828 230.101 221.463C232.999 218.099 236.755 216.417 241.368 216.417C243.759 216.417 245.769 216.914 247.398 217.909C249.048 218.882 250.265 219.972 251.048 221.178H251.587V217.274H261.649V251.583H251.651V247.679H251.111C250.815 248.166 250.434 248.642 249.969 249.107C249.503 249.573 248.89 250.081 248.128 250.631C247.387 251.16 246.446 251.594 245.303 251.932C244.182 252.271 242.955 252.44 241.622 252.44C236.882 252.44 233.052 250.811 230.132 247.552C227.234 244.294 225.784 239.977 225.784 234.603ZM235.972 234.413C235.972 237.079 236.702 239.237 238.162 240.887C239.622 242.516 241.537 243.331 243.907 243.331C246.277 243.331 248.181 242.495 249.62 240.824C251.059 239.131 251.778 236.994 251.778 234.413C251.778 231.725 251.037 229.578 249.556 227.97C248.075 226.34 246.171 225.526 243.843 225.526C241.516 225.526 239.622 226.351 238.162 228.001C236.702 229.652 235.972 231.789 235.972 234.413ZM265.144 251.583V217.274H274.633V222.447H275.173C275.85 220.987 276.961 219.718 278.505 218.639C280.05 217.538 281.88 216.988 283.996 216.988H287.329V226.478H283.361C280.865 226.478 278.886 227.324 277.426 229.017C275.966 230.71 275.236 233.027 275.236 235.968V251.583H265.144ZM286.983 234.603C286.983 229.208 288.422 224.828 291.3 221.463C294.198 218.099 297.954 216.417 302.567 216.417C304.958 216.417 306.968 216.914 308.597 217.909C310.247 218.882 311.464 219.972 312.247 221.178H312.787V202.833H322.848V251.583H312.85V247.679H312.31C312.014 248.166 311.633 248.642 311.168 249.107C310.702 249.573 310.089 250.081 309.327 250.631C308.586 251.16 307.645 251.594 306.502 251.932C305.381 252.271 304.154 252.44 302.821 252.44C298.081 252.44 294.251 250.811 291.331 247.552C288.433 244.294 286.983 239.977 286.983 234.603ZM297.171 234.413C297.171 237.079 297.901 239.237 299.361 240.887C300.821 242.516 302.736 243.331 305.106 243.331C307.476 243.331 309.38 242.495 310.819 240.824C312.258 239.131 312.977 236.994 312.977 234.413C312.977 231.725 312.236 229.578 310.755 227.97C309.274 226.34 307.37 225.526 305.042 225.526C302.715 225.526 300.821 226.351 299.361 228.001C297.901 229.652 297.171 231.789 297.171 234.413ZM327.073 211.942C325.972 210.947 325.422 209.625 325.422 207.975C325.422 206.324 325.972 205.002 327.073 204.007C328.173 203.013 329.601 202.516 331.357 202.516C333.113 202.516 334.531 203.013 335.61 204.007C336.71 204.981 337.261 206.303 337.261 207.975C337.261 209.646 336.71 210.979 335.61 211.974C334.531 212.947 333.113 213.434 331.357 213.434C329.601 213.434 328.173 212.936 327.073 211.942ZM326.343 251.583V217.274H336.435V251.583H326.343ZM339.899 251.583V217.274H349.388V221.019H349.928C350.668 219.728 351.843 218.639 353.451 217.75C355.08 216.861 356.974 216.417 359.132 216.417C362.877 216.417 365.861 217.56 368.082 219.845C370.304 222.13 371.415 225.082 371.415 228.7V251.583H361.354V231.81C361.354 230.012 360.856 228.562 359.862 227.462C358.868 226.34 357.524 225.78 355.831 225.78C354.096 225.78 352.689 226.415 351.61 227.684C350.531 228.932 349.991 230.488 349.991 232.35V251.583H339.899ZM373.037 234.222C373.037 228.827 374.497 224.51 377.417 221.273C380.337 218.036 384.029 216.417 388.494 216.417C390.969 216.417 393.043 216.925 394.714 217.94C396.386 218.956 397.581 220.035 398.301 221.178H398.84V217.274H408.901V251.202C408.901 253.487 408.531 255.593 407.791 257.518C407.071 259.465 405.992 261.179 404.553 262.66C403.136 264.141 401.263 265.294 398.936 266.119C396.608 266.965 393.953 267.389 390.969 267.389C388.388 267.389 386.06 267.04 383.987 266.341C381.913 265.643 380.221 264.691 378.909 263.485C377.597 262.3 376.581 260.956 375.862 259.454C375.143 257.952 374.74 256.365 374.656 254.693H383.892C384.124 256.069 384.833 257.169 386.018 257.994C387.203 258.84 388.853 259.264 390.969 259.264C396.259 259.264 398.904 256.576 398.904 251.202V247.235H398.364C398.005 247.743 397.581 248.24 397.095 248.727C396.608 249.192 395.973 249.689 395.191 250.218C394.429 250.747 393.487 251.17 392.366 251.488C391.244 251.805 390.038 251.964 388.748 251.964C385.764 251.964 383.088 251.266 380.718 249.869C378.369 248.451 376.497 246.389 375.1 243.68C373.725 240.972 373.037 237.819 373.037 234.222ZM383.225 234.222C383.225 236.867 383.945 238.972 385.383 240.538C386.843 242.104 388.769 242.887 391.16 242.887C393.551 242.887 395.455 242.083 396.873 240.475C398.311 238.867 399.031 236.782 399.031 234.222C399.031 231.535 398.29 229.419 396.809 227.875C395.349 226.309 393.445 225.526 391.096 225.526C388.748 225.526 386.843 226.319 385.383 227.906C383.945 229.493 383.225 231.598 383.225 234.222ZM165.337 293.989V285.07H201.106V293.989H188.347V330.583H178.032V293.989H165.337ZM203.934 290.942C202.834 289.947 202.284 288.625 202.284 286.975C202.284 285.324 202.834 284.002 203.934 283.007C205.035 282.013 206.463 281.516 208.219 281.516C209.975 281.516 211.393 282.013 212.472 283.007C213.572 283.981 214.122 285.303 214.122 286.975C214.122 288.646 213.572 289.979 212.472 290.974C211.393 291.947 209.975 292.434 208.219 292.434C206.463 292.434 205.035 291.936 203.934 290.942ZM203.204 330.583V296.274H213.297V330.583H203.204ZM216.76 330.583V296.274H226.25V299.956H226.79C227.594 298.665 228.758 297.586 230.281 296.718C231.804 295.851 233.624 295.417 235.74 295.417C240.162 295.417 243.484 296.972 245.706 300.083H246.15C248.52 296.972 251.831 295.417 256.084 295.417C259.808 295.417 262.813 296.538 265.098 298.781C267.404 301.024 268.557 303.933 268.557 307.509V330.583H258.496V311.032C258.496 309.086 258.052 307.562 257.163 306.462C256.296 305.34 255.005 304.78 253.291 304.78C251.641 304.78 250.308 305.393 249.292 306.621C248.277 307.848 247.769 309.424 247.769 311.35V330.583H237.708V310.747C237.708 308.948 237.242 307.509 236.311 306.43C235.38 305.33 234.068 304.78 232.376 304.78C230.746 304.78 229.413 305.393 228.377 306.621C227.361 307.848 226.853 309.403 226.853 311.286V330.583H216.76ZM270.212 313.603C270.212 308.229 271.841 303.859 275.099 300.495C278.358 297.11 282.6 295.417 287.826 295.417C290.577 295.417 293.053 295.904 295.253 296.877C297.475 297.829 299.284 299.13 300.68 300.781C302.077 302.431 303.145 304.325 303.886 306.462C304.648 308.599 305.028 310.874 305.028 313.286V316.206H279.765C279.934 318.406 280.759 320.205 282.24 321.601C283.743 322.998 285.668 323.696 288.017 323.696C289.9 323.696 291.497 323.304 292.809 322.521C294.142 321.739 295.073 320.765 295.602 319.602H304.711C303.928 323.241 302.034 326.129 299.03 328.266C296.025 330.382 292.227 331.44 287.636 331.44C284.356 331.44 281.383 330.678 278.717 329.155C276.073 327.631 273.988 325.505 272.465 322.775C270.963 320.046 270.212 316.988 270.212 313.603ZM279.955 309.509H295.697C295.507 307.647 294.692 306.113 293.254 304.907C291.836 303.701 290.027 303.098 287.826 303.098C285.753 303.098 283.975 303.732 282.494 305.002C281.034 306.25 280.188 307.753 279.955 309.509Z" fill="#254A9C"/>
<path d="M286.936 69.5L236.441 18.4375L209.865 45.3125L170 5" stroke="#254A9C" stroke-width="10" stroke-linecap="round" stroke-linejoin="round"/>
<path d="M255.044 69.5H286.936V37.25" stroke="#254A9C" stroke-width="10" stroke-linecap="round" stroke-linejoin="round"/>
</svg>
