<svg width="337" height="272" viewBox="0 0 337 272" fill="none" xmlns="http://www.w3.org/2000/svg">
<path d="M284.42 127.306C284.477 147.074 279.318 166.574 269.362 184.219C257.558 205.363 239.41 223.147 216.953 235.58C194.495 248.012 168.615 254.602 142.21 254.611C120.545 254.662 99.167 250.217 79.7523 241.632C79.0221 241.309 78.2134 241.204 77.4265 241.339L5.82364 253.613C3.03447 254.091 0.644367 251.601 1.2363 248.834L14.7409 185.701C14.9452 184.746 14.7904 183.75 14.3212 182.894C4.84777 165.6 -0.0556599 146.58 0.000476621 127.306C0.010694 103.668 7.37215 80.5002 21.2603 60.3964C35.1484 40.2926 55.0147 24.0472 78.634 13.4798C98.3445 4.56742 120.128 -0.0511134 142.21 0.00042667H150.575C185.448 1.72267 218.385 14.8991 243.081 37.0068C267.777 59.1145 282.496 88.5999 284.42 119.817V127.306Z" fill="url(#paint0_linear)"/>
<path d="M336.584 144.694C336.643 164.462 331.348 183.962 321.132 201.607C309.018 222.751 290.395 240.535 267.349 252.968C244.303 265.4 217.745 271.99 190.648 271.999C168.396 272.05 146.439 267.597 126.501 258.997C125.786 258.689 124.997 258.588 124.228 258.717L50.5467 271.025C47.7536 271.491 45.3735 268.988 45.9806 266.222L59.8313 203.124C60.0456 202.148 59.884 201.128 59.3945 200.257C49.6819 182.97 44.6548 163.959 44.7124 144.694C44.7229 121.056 52.2772 97.8882 66.5292 77.7844C80.7813 57.6806 101.168 41.4351 125.406 30.8678C145.633 21.9554 167.987 17.3368 190.648 17.3884H199.232C235.018 19.1106 268.819 32.287 294.162 54.3947C319.505 76.5024 334.609 105.988 336.584 137.205V144.694Z" fill="url(#paint1_linear)"/>
<defs>
<linearGradient id="paint0_linear" x1="142.21" y1="0" x2="142.21" y2="254.612" gradientUnits="userSpaceOnUse">
<stop stop-color="#91ACE8"/>
<stop offset="1" stop-color="#778EC1"/>
</linearGradient>
<linearGradient id="paint1_linear" x1="190.648" y1="17.3879" x2="190.648" y2="272" gradientUnits="userSpaceOnUse">
<stop stop-color="#254A9C"/>
<stop offset="1" stop-color="#2D53AA"/>
</linearGradient>
</defs>
</svg>
